# xmcd
#
# Track frame offsets:
#	150
#	12077
#	23985
#	43732
#	60513
#	75390
#	85373
#	103656
#	118785
#	133329
#	148206
#	164336
#	181491
#	194213
#	208130
#	226146
#	236247
#	255341
#	280423
#	293737
#
# Disc length: 4103 seconds
#
# Revision: 1
# Processed by: cddbd v1.5.2PL0 Copyright (c) Steve Scherf et al.
# Submitted via: audiograbber 1.83.01
#
DISCID=2c100514
DTITLE=Eddie Low - I'll Leave This World Loving You
DYEAR=1900
DGENRE=Country
TTITLE0=Red Hot Memory
TTITLE1=I Don't Feel Like Loving You Today
TTITLE2=Take Me Home
TTITLE3=Never Knew Lonely
TTITLE4=Bluest Heartache Of The Year
TTITLE5=Walking In the Sun
TTITLE6=You Really Had To Be There
TTITLE7=Let Me Be The First To Go
TTITLE8=We Could Be Dancing Tonight
TTITLE9=The Blind Man In The Bleachers
TTITLE10=Drive Safely Darlin
TTITLE11=Better Off Alone
TTITLE12=A Fool Such As I
TTITLE13=If You Think Its Lonesome
TTITLE14=Can You Feel The Love Tonight
TTITLE15=What Now My Love
TTITLE16=Ave Maria
TTITLE17=Mart Robbins Medley
TTITLE18=If I Didn't Have A Dime
TTITLE19=I'll Leave This World Loving You
EXTD=
EXTT0=
EXTT1=
EXTT2=
EXTT3=
EXTT4=
EXTT5=
EXTT6=
EXTT7=
EXTT8=
EXTT9=
EXTT10=
EXTT11=
EXTT12=
EXTT13=
EXTT14=
EXTT15=
EXTT16=
EXTT17=
EXTT18=
EXTT19=
PLAYORDER=
